<svg width="64" height="64" viewBox="0 0 64 64" fill="none" xmlns="http://www.w3.org/2000/svg">
<path d="M28 13C28 14.1258 27.6279 15.1647 27 16.0005C26.0878 17.2147 24.6356 18 23 18C20.2386 18 18 15.7614 18 13C18 11.4793 18.6788 10.1172 19.75 9.2002C20.624 8.45195 21.7592 8 23 8C25.7614 8 28 10.2386 28 13Z" fill="white"/>
<path d="M18 23C18 25.7614 15.7614 28 13 28C10.2386 28 8 25.7614 8 23C8 20.2386 10.2386 18 13 18C15.7614 18 18 20.2386 18 23Z" fill="white"/>
<path d="M21.0883 18.3999C19.6818 18.8904 18.8549 19.7326 18.376 21.1582C17.5658 23.5699 14.674 24.924 12.875 23.125C11.076 21.326 12.4146 18.4585 14.8588 17.7524C16.3921 17.3094 17.2472 16.479 17.7151 14.9299C18.4211 12.5924 21.1722 11.2724 22.9436 12.9529C24.7662 14.682 23.4605 17.5727 21.0883 18.3999Z" fill="white"/>
<path d="M23.493 55.1182C22.3675 55.1462 21.3197 54.8001 20.4686 54.1932C19.2321 53.3115 18.4108 51.8793 18.3701 50.2442C18.3014 47.4836 20.4836 45.19 23.2442 45.1213C24.7644 45.0835 26.1429 45.7282 27.0863 46.7762C27.8561 47.6314 28.3362 48.755 28.367 49.9953C28.4358 52.7559 26.2536 55.0495 23.493 55.1182Z" fill="white"/>
<path d="M13.2473 45.3701C10.4867 45.4389 8.19312 43.2567 8.12441 40.4961C8.0557 37.7355 10.2379 35.4419 12.9985 35.3732C15.759 35.3045 18.0526 37.4867 18.1213 40.2473C18.19 43.0078 16.0078 45.3014 13.2473 45.3701Z" fill="white"/>
<path d="M17.9228 48.343C17.3975 46.9492 16.535 46.1435 15.0979 45.7002C12.6667 44.9503 11.2411 42.093 12.9948 40.2498C14.7485 38.4066 17.6484 39.6735 18.4151 42.0993C18.8961 43.6212 19.7476 44.4553 21.3078 44.8846C23.6621 45.5322 25.0502 48.2496 23.4142 50.0622C21.731 51.9273 18.8087 50.6939 17.9228 48.343Z" fill="white"/>
<path d="M51.493 28.1182C50.3675 28.1462 49.3197 27.8001 48.4686 27.1932C47.2321 26.3115 46.4108 24.8793 46.3701 23.2442C46.3014 20.4836 48.4836 18.19 51.2442 18.1213C52.7644 18.0835 54.1429 18.7282 55.0863 19.7762C55.8561 20.6313 56.3362 21.755 56.367 22.9954C56.4358 25.7559 54.2536 28.0495 51.493 28.1182Z" fill="white"/>
<path d="M41.2473 18.3701C38.4867 18.4389 36.1931 16.2567 36.1244 13.4961C36.0557 10.7355 38.2379 8.44195 40.9985 8.37324C43.759 8.30453 46.0526 10.4867 46.1213 13.2473C46.19 16.0078 44.0079 18.3014 41.2473 18.3701Z" fill="white"/>
<path d="M45.9228 21.343C45.3975 19.9492 44.535 19.1435 43.0979 18.7002C40.6668 17.9503 39.2411 15.093 40.9948 13.2498C42.7485 11.4066 45.6484 12.6735 46.4151 15.0993C46.8961 16.6212 47.7476 17.4553 49.3078 17.8846C51.6621 18.5322 53.0502 21.2496 51.4142 23.0622C49.731 24.9273 46.8087 23.6939 45.9228 21.343Z" fill="white"/>
<path d="M56 40C56 41.1258 55.6279 42.1647 55 43.0005C54.0878 44.2147 52.6356 45 51 45C48.2386 45 46 42.7614 46 40C46 38.4793 46.6788 37.1172 47.75 36.2002C48.624 35.4519 49.7592 35 51 35C53.7614 35 56 37.2386 56 40Z" fill="white"/>
<path d="M46 50C46 52.7614 43.7614 55 41 55C38.2386 55 36 52.7614 36 50C36 47.2386 38.2386 45 41 45C43.7614 45 46 47.2386 46 50Z" fill="white"/>
<path d="M49.0883 45.3999C47.6818 45.8904 46.8549 46.7326 46.376 48.1582C45.5658 50.5699 42.674 51.924 40.875 50.125C39.076 48.326 40.4146 45.4585 42.8588 44.7524C44.3921 44.3094 45.2472 43.479 45.7151 41.9299C46.4211 39.5924 49.1722 38.2724 50.9436 39.9529C52.7662 41.682 51.4605 44.5727 49.0883 45.3999Z" fill="white"/>
<path d="M39 31.5C39 35.6421 35.6421 39 31.5 39C27.3579 39 24 35.6421 24 31.5C24 27.3579 27.3579 24 31.5 24C35.6421 24 39 27.3579 39 31.5Z" fill="white"/>
</svg>
