<svg width="64" height="64" viewBox="0 0 64 64" fill="none" xmlns="http://www.w3.org/2000/svg">
<path d="M37.5165 25.3033C38.7106 26.4974 39.4179 27.994 39.6383 29.5465C39.9586 31.8018 39.2513 34.1751 37.5165 35.9099C34.5876 38.8388 29.8388 38.8388 26.9099 35.9099C25.297 34.297 24.5723 32.1323 24.7358 30.0235C24.8692 28.3028 25.5939 26.6193 26.9099 25.3033C29.8388 22.3744 34.5876 22.3744 37.5165 25.3033Z" fill="white"/>
<path d="M37.5165 46.5165C40.4454 49.4454 40.4454 54.1942 37.5165 57.1231C34.5876 60.052 29.8388 60.052 26.9099 57.1231C23.981 54.1942 23.981 49.4454 26.9099 46.5165C29.8388 43.5876 34.5876 43.5876 37.5165 46.5165Z" fill="white"/>
<path d="M36.1046 37.9855C34.8358 40.3563 34.8963 42.3611 36.286 44.7668C38.0687 47.8525 36.4614 52.085 32.8978 52.085L31.5286 52.085C27.965 52.085 26.3656 47.8829 28.2699 44.8708C29.8328 42.3985 29.9183 40.4106 28.4624 37.9157C26.6918 34.8815 28.1956 30.7193 31.7075 30.6269L32.5301 30.6052C36.1435 30.5102 37.8102 34.7987 36.1046 37.9855Z" fill="white"/>
<path d="M40 13.5C40 17.6421 36.6421 21 32.5 21C28.3579 21 25 17.6421 25 13.5C25 9.35786 28.3579 6 32.5 6C36.6421 6 40 9.35786 40 13.5Z" fill="white"/>
<path d="M56 30.5C56 34.6421 52.6421 38 48.5 38C44.3579 38 41 34.6421 41 30.5C41 26.3579 44.3579 23 48.5 23C52.6421 23 56 26.3579 56 30.5Z" fill="white"/>
<path d="M23 30.5C23 34.6421 19.6421 38 15.5 38C11.3579 38 8 34.6421 8 30.5C8 26.3579 11.3579 23 15.5 23C19.6421 23 23 26.3579 23 30.5Z" fill="white"/>
</svg>
