<svg width="64" height="64" viewBox="0 0 64 64" fill="none" xmlns="http://www.w3.org/2000/svg">
<path d="M52 22C52 24.2516 51.2558 26.3295 50 28.001C48.1755 30.4293 45.2712 32 42 32C36.4771 32 32 27.5228 32 22C32 18.9587 33.3577 16.2345 35.5 14.4004C37.248 12.9039 39.5185 12 42 12C47.5228 12 52 16.4772 52 22Z" fill="white"/>
<path d="M32 42C32 47.5228 27.5228 52 22 52C16.4772 52 12 47.5228 12 42C12 36.4772 16.4772 32 22 32C27.5228 32 32 36.4772 32 42Z" fill="white"/>
<path d="M41.9863 31.9508C35.2278 32.856 32.7507 35.4389 31.9042 42.3502C31.471 45.8873 27.1914 47.6914 24.6716 45.1716L18.8284 39.3284C16.3086 36.8086 18.1086 32.5482 21.6561 32.2102C28.7632 31.533 31.2905 29.3262 32.1238 22.3058C32.5379 18.8172 36.7044 16.9888 39.253 19.4067L44.7251 24.5981C47.3473 27.0859 45.5688 31.471 41.9863 31.9508Z" fill="white"/>
<path d="M29 19C29 24.5228 24.5228 29 19 29C13.4772 29 9 24.5228 9 19C9 13.4772 13.4772 9 19 9C24.5228 9 29 13.4772 29 19Z" fill="white"/>
<path d="M55 45C55 50.5228 50.5228 55 45 55C39.4772 55 35 50.5228 35 45C35 39.4772 39.4772 35 45 35C50.5228 35 55 39.4772 55 45Z" fill="white"/>
</svg>
