<svg width="64" height="64" viewBox="0 0 64 64" fill="none" xmlns="http://www.w3.org/2000/svg">
<path d="M32 17C32 18.1258 31.6279 19.1647 31 20.0005C30.0878 21.2147 28.6356 22 27 22C24.2386 22 22 19.7614 22 17C22 15.4793 22.6788 14.1172 23.75 13.2002C24.624 12.4519 25.7592 12 27 12C29.7614 12 32 14.2386 32 17Z" fill="white"/>
<path d="M22 27C22 29.7614 19.7614 32 17 32C14.2386 32 12 29.7614 12 27C12 24.2386 14.2386 22 17 22C19.7614 22 22 24.2386 22 27Z" fill="white"/>
<path d="M25.0883 22.3999C23.6818 22.8904 22.8549 23.7326 22.376 25.1582C21.5658 27.5699 18.674 28.924 16.875 27.125C15.076 25.326 16.4146 22.4585 18.8588 21.7524C20.3921 21.3094 21.2472 20.479 21.7151 18.9299C22.4211 16.5924 25.1722 15.2724 26.9436 16.9529C28.7662 18.682 27.4605 21.5727 25.0883 22.3999Z" fill="white"/>
<path d="M42 27C42 28.1258 41.6279 29.1647 41 30.0005C40.0878 31.2147 38.6356 32 37 32C34.2386 32 32 29.7614 32 27C32 25.4793 32.6788 24.1172 33.75 23.2002C34.624 22.4519 35.7592 22 37 22C39.7614 22 42 24.2386 42 27Z" fill="white"/>
<path d="M32 37C32 39.7614 29.7614 42 27 42C24.2386 42 22 39.7614 22 37C22 34.2386 24.2386 32 27 32C29.7614 32 32 34.2386 32 37Z" fill="white"/>
<path d="M35.0883 32.3999C33.6818 32.8904 32.8549 33.7326 32.376 35.1582C31.5658 37.5699 28.674 38.924 26.875 37.125C25.076 35.326 26.4146 32.4585 28.8588 31.7524C30.3921 31.3094 31.2472 30.479 31.7151 28.9299C32.4211 26.5924 35.1722 25.2724 36.9436 26.9529C38.7662 28.682 37.4605 31.5727 35.0883 32.3999Z" fill="white"/>
<path d="M52 37C52 38.1258 51.6279 39.1647 51 40.0005C50.0878 41.2147 48.6356 42 47 42C44.2386 42 42 39.7614 42 37C42 35.4793 42.6788 34.1172 43.75 33.2002C44.624 32.4519 45.7592 32 47 32C49.7614 32 52 34.2386 52 37Z" fill="white"/>
<path d="M42 47C42 49.7614 39.7614 52 37 52C34.2386 52 32 49.7614 32 47C32 44.2386 34.2386 42 37 42C39.7614 42 42 44.2386 42 47Z" fill="white"/>
<path d="M45.0883 42.3999C43.6818 42.8904 42.8549 43.7326 42.376 45.1582C41.5658 47.5699 38.674 48.924 36.875 47.125C35.076 45.326 36.4146 42.4585 38.8588 41.7524C40.3921 41.3094 41.2472 40.479 41.7151 38.9299C42.4211 36.5924 45.1722 35.2724 46.9436 36.9529C48.7662 38.682 47.4605 41.5727 45.0883 42.3999Z" fill="white"/>
<path d="M32 17C32 18.1258 31.6279 19.1647 31 20.0005C30.0878 21.2147 28.6356 22 27 22C24.2386 22 22 19.7614 22 17C22 15.4793 22.6788 14.1172 23.75 13.2002C24.624 12.4519 25.7592 12 27 12C29.7614 12 32 14.2386 32 17Z" stroke="white"/>
<path d="M22 27C22 29.7614 19.7614 32 17 32C14.2386 32 12 29.7614 12 27C12 24.2386 14.2386 22 17 22C19.7614 22 22 24.2386 22 27Z" stroke="white"/>
<path d="M25.0883 22.3999C23.6818 22.8904 22.8549 23.7326 22.376 25.1582C21.5658 27.5699 18.674 28.924 16.875 27.125C15.076 25.326 16.4146 22.4585 18.8588 21.7524C20.3921 21.3094 21.2472 20.479 21.7151 18.9299C22.4211 16.5924 25.1722 15.2724 26.9436 16.9529C28.7662 18.682 27.4605 21.5727 25.0883 22.3999Z" stroke="white"/>
<path d="M42 27C42 28.1258 41.6279 29.1647 41 30.0005C40.0878 31.2147 38.6356 32 37 32C34.2386 32 32 29.7614 32 27C32 25.4793 32.6788 24.1172 33.75 23.2002C34.624 22.4519 35.7592 22 37 22C39.7614 22 42 24.2386 42 27Z" stroke="white"/>
<path d="M32 37C32 39.7614 29.7614 42 27 42C24.2386 42 22 39.7614 22 37C22 34.2386 24.2386 32 27 32C29.7614 32 32 34.2386 32 37Z" stroke="white"/>
<path d="M35.0883 32.3999C33.6818 32.8904 32.8549 33.7326 32.376 35.1582C31.5658 37.5699 28.674 38.924 26.875 37.125C25.076 35.326 26.4146 32.4585 28.8588 31.7524C30.3921 31.3094 31.2472 30.479 31.7151 28.9299C32.4211 26.5924 35.1722 25.2724 36.9436 26.9529C38.7662 28.682 37.4605 31.5727 35.0883 32.3999Z" stroke="white"/>
<path d="M52 37C52 38.1258 51.6279 39.1647 51 40.0005C50.0878 41.2147 48.6356 42 47 42C44.2386 42 42 39.7614 42 37C42 35.4793 42.6788 34.1172 43.75 33.2002C44.624 32.4519 45.7592 32 47 32C49.7614 32 52 34.2386 52 37Z" stroke="white"/>
<path d="M42 47C42 49.7614 39.7614 52 37 52C34.2386 52 32 49.7614 32 47C32 44.2386 34.2386 42 37 42C39.7614 42 42 44.2386 42 47Z" stroke="white"/>
<path d="M45.0883 42.3999C43.6818 42.8904 42.8549 43.7326 42.376 45.1582C41.5658 47.5699 38.674 48.924 36.875 47.125C35.076 45.326 36.4146 42.4585 38.8588 41.7524C40.3921 41.3094 41.2472 40.479 41.7151 38.9299C42.4211 36.5924 45.1722 35.2724 46.9436 36.9529C48.7662 38.682 47.4605 41.5727 45.0883 42.3999Z" stroke="white"/>
</svg>
