<svg width="64" height="64" viewBox="0 0 64 64" fill="none" xmlns="http://www.w3.org/2000/svg">
<path d="M28 12C28 13.1258 27.6279 14.1647 27 15.0005C26.0878 16.2147 24.6356 17 23 17C20.2386 17 18 14.7614 18 12C18 10.4793 18.6788 9.11724 19.75 8.2002C20.624 7.45195 21.7592 7 23 7C25.7614 7 28 9.23858 28 12Z" fill="white"/>
<path d="M18 22C18 24.7614 15.7614 27 13 27C10.2386 27 8 24.7614 8 22C8 19.2386 10.2386 17 13 17C15.7614 17 18 19.2386 18 22Z" fill="white"/>
<path d="M21.0883 17.3999C19.6818 17.8904 18.8549 18.7326 18.376 20.1582C17.5658 22.5699 14.674 23.924 12.875 22.125C11.076 20.326 12.4146 17.4585 14.8588 16.7524C16.3921 16.3094 17.2472 15.479 17.7151 13.9299C18.4211 11.5924 21.1722 10.2724 22.9436 11.9529C24.7662 13.682 23.4605 16.5727 21.0883 17.3999Z" fill="white"/>
<path d="M37.2473 41.8725C36.1218 41.9005 35.0739 41.5544 34.2228 40.9475C32.9863 40.0657 32.1651 38.6335 32.1244 36.9984C32.0557 34.2379 34.2379 31.9443 36.9985 31.8756C38.5186 31.8377 39.8972 32.4825 40.8406 33.5305C41.6104 34.3856 42.0904 35.5092 42.1213 36.7496C42.19 39.5102 40.0078 41.8038 37.2473 41.8725Z" fill="white"/>
<path d="M27.0015 32.1244C24.241 32.1931 21.9474 30.0109 21.8787 27.2504C21.81 24.4898 23.9922 22.1962 26.7527 22.1275C29.5133 22.0588 31.8069 24.241 31.8756 27.0015C31.9443 29.7621 29.7621 32.0557 27.0015 32.1244Z" fill="white"/>
<path d="M31.6771 35.0973C31.1518 33.7035 30.2892 32.8978 28.8521 32.4545C26.421 31.7045 24.9954 28.8473 26.7491 27.0041C28.5027 25.1609 31.4027 26.4277 32.1694 28.8536C32.6504 30.3755 33.5018 31.2096 35.0621 31.6388C37.4164 32.2865 38.8045 35.0039 37.1685 36.8165C35.4853 38.6815 32.563 37.4482 31.6771 35.0973Z" fill="white"/>
<path d="M56 40C56 41.1258 55.6279 42.1647 55 43.0005C54.0878 44.2147 52.6356 45 51 45C48.2386 45 46 42.7614 46 40C46 38.4793 46.6788 37.1172 47.75 36.2002C48.624 35.4519 49.7592 35 51 35C53.7614 35 56 37.2386 56 40Z" fill="white"/>
<path d="M46 50C46 52.7614 43.7614 55 41 55C38.2386 55 36 52.7614 36 50C36 47.2386 38.2386 45 41 45C43.7614 45 46 47.2386 46 50Z" fill="white"/>
<path d="M49.0883 45.3999C47.6818 45.8904 46.8549 46.7326 46.376 48.1582C45.5658 50.5699 42.674 51.924 40.875 50.125C39.076 48.326 40.4146 45.4585 42.8588 44.7524C44.3921 44.3094 45.2472 43.479 45.7151 41.9299C46.4211 39.5924 49.1722 38.2724 50.9436 39.9529C52.7662 41.682 51.4605 44.5727 49.0883 45.3999Z" fill="white"/>
<path d="M49 19.5C49 23.6421 45.6421 27 41.5 27C37.3579 27 34 23.6421 34 19.5C34 15.3579 37.3579 12 41.5 12C45.6421 12 49 15.3579 49 19.5Z" fill="white"/>
</svg>
