<svg width="64" height="64" viewBox="0 0 64 64" fill="none" xmlns="http://www.w3.org/2000/svg">
<path d="M13.5 42L19.1292 51.75H7.87085L13.5 42Z" fill="white"/>
<path d="M37.5 42L43.1292 51.75H31.8708L37.5 42Z" fill="white"/>
<path d="M49.5 42L55.1292 51.75H43.8708L49.5 42Z" fill="white"/>
<path d="M19.5 32L25.1292 41.75H13.8708L19.5 32Z" fill="white"/>
<path d="M25.5 22L31.1292 31.75H19.8708L25.5 22Z" fill="white"/>
<path d="M31.5 12L37.1292 21.75H25.8708L31.5 12Z" fill="white"/>
<path d="M37.5 22L43.1292 31.75H31.8708L37.5 22Z" fill="white"/>
<path d="M31.5 32L37.1292 41.75H25.8708L31.5 32Z" fill="white"/>
<path d="M43.5 32L49.1292 41.75H37.8708L43.5 32Z" fill="white"/>
<path d="M25.5 42L31.1292 51.75H19.8708L25.5 42Z" fill="white"/>
</svg>
