<svg width="64" height="64" viewBox="0 0 64 64" fill="none" xmlns="http://www.w3.org/2000/svg">
<path d="M25.0121 26.0242L14.5016 32.0682L14.5226 19.9439L25.0121 26.0242Z" fill="white"/>
<path d="M39.0121 38L49.5226 31.956L49.5016 44.0803L39.0121 38Z" fill="white"/>
<path d="M26 38L32.0622 48.5H19.9379L26 38Z" fill="white"/>
<path d="M26 26L19.9379 15.5H32.0622L26 26Z" fill="white"/>
<path d="M25.0121 38.0242L14.5016 44.0682L14.5226 31.9439L25.0121 38.0242Z" fill="white"/>
<path d="M39.0121 26L49.5226 19.956L49.5016 32.0803L39.0121 26Z" fill="white"/>
<path d="M38 38L44.0622 48.5H31.9379L38 38Z" fill="white"/>
<path d="M38 26L31.9379 15.5H44.0622L38 26Z" fill="white"/>
</svg>
